<svg data-v-0dd9719b="" version="1.0" xmlns="http://www.w3.org/2000/svg" xmlns:xlink="http://www.w3.org/1999/xlink" width="100%" height="100%" viewBox="0 0 340.000000 250.000000" preserveAspectRatio="xMidYMid meet" color-interpolation-filters="sRGB" style="margin: auto;"> <rect data-v-0dd9719b="" x="0" y="0" width="100%" height="100%" fill="#fff" fill-opacity="1" class="background"></rect> <rect data-v-0dd9719b="" x="0" y="0" width="100%" height="100%" fill="url(#watermark)" fill-opacity="1" class="watermarklayer"></rect> <g data-v-0dd9719b="" fill="#333" class="icon-text-wrapper icon-svg-group iconsvg" transform="translate(49.30999755859375,94.9960994720459)"><g class="iconsvg-imagesvg" transform="translate(0,0)"><g><rect fill="#333" fill-opacity="0" stroke-width="2" x="0" y="0" width="60" height="60.007801014131836" class="image-rect"></rect> <svg x="0" y="0" width="60" height="60.007801014131836" filtersec="colorsb6532905031" class="image-svg-svg primary" style="overflow: visible;"><svg xmlns="http://www.w3.org/2000/svg" viewBox="-0.013850562274456024 0.0049994695000350475 91.67761993408203 91.68975830078125"><title>资源 2</title><path d="M6.85 49.61a8.76 8.76 0 0 0-.15 17.07c1.58.38 3.45.27 5.48.71A15.91 15.91 0 0 1 24.4 80.15c.31 1.77.2 3.81.76 5.52a8.92 8.92 0 0 0 2.19 3.5A8.77 8.77 0 0 0 39.93 77a8.67 8.67 0 0 0-3-2.15c-2.3-1-3.25-.62-5.5-.92a16 16 0 0 1-3.8-1 12.33 12.33 0 0 1-2.77-1.45A15.86 15.86 0 0 1 22.22 47a15.78 15.78 0 0 1 8.59-4.46c1.58-.27 3.31-.14 4.87-.54a8.77 8.77 0 1 0-10.53-11.2c-.62 1.92-.39 2.83-.64 4.76a15.9 15.9 0 0 1-13.9 13.73 30.72 30.72 0 0 0-3.76.34z" fill="#0086c0"></path><path d="M84.81 42.05A8.76 8.76 0 0 0 85 25c-1.57-.38-3.44-.27-5.47-.71a15.87 15.87 0 0 1-12.27-12.78C67 9.75 67.06 7.7 66.5 6a8.85 8.85 0 0 0-2.19-3.5 8.76 8.76 0 1 0-9.53 14.34c2.3 1 3.26.62 5.51.92a15.47 15.47 0 0 1 3.79 1 11.71 11.71 0 0 1 2.77 1.44 15.88 15.88 0 0 1-6 29c-1.59.27-3.32.13-4.87.53a8.76 8.76 0 1 0 10.52 11.2c.62-1.91.39-2.83.64-4.76A15.87 15.87 0 0 1 81.06 42.4a30.73 30.73 0 0 0 3.75-.35z" fill="#fec577"></path><path d="M49.61 84.81a8.76 8.76 0 0 0 17.07.19c.38-1.57.27-3.45.71-5.47a15.91 15.91 0 0 1 12.76-12.27c1.77-.31 3.81-.2 5.52-.76a8.92 8.92 0 0 0 3.5-2.19A8.77 8.77 0 0 0 77 51.73a8.67 8.67 0 0 0-2.15 3.05c-1 2.3-.62 3.26-.92 5.51a15.91 15.91 0 0 1-1 3.79 12.12 12.12 0 0 1-1.45 2.77 15.87 15.87 0 0 1-28.94-6c-.27-1.58-.14-3.31-.54-4.86a8.76 8.76 0 1 0-15 8 8.81 8.81 0 0 0 3.81 2.48c1.92.62 2.83.39 4.76.64a15.9 15.9 0 0 1 13.7 13.95 30.74 30.74 0 0 0 .34 3.75z" fill="#51d25b"></path><path d="M42.05 6.85A8.76 8.76 0 0 0 25 6.7c-.38 1.58-.27 3.45-.71 5.47A15.87 15.87 0 0 1 11.51 24.4c-1.76.31-3.81.2-5.51.76a8.77 8.77 0 0 0-3.43 14.52 8.77 8.77 0 0 0 14.27-2.8c1-2.29.62-3.25.92-5.5a15.55 15.55 0 0 1 1-3.8 11.91 11.91 0 0 1 1.44-2.77 15.88 15.88 0 0 1 29 6c.27 1.58.13 3.31.53 4.87a8.77 8.77 0 1 0 11.2-10.53c-1.91-.62-2.83-.39-4.76-.64a15.88 15.88 0 0 1-13.77-13.9 30.71 30.71 0 0 0-.35-3.76z" fill="#ff5b72"></path><path d="M89.13 14.79a8.66 8.66 0 1 1 0-12.25 8.67 8.67 0 0 1 0 12.25z" fill="#fec577" fill-rule="evenodd"></path><path d="M89.13 89.12a8.66 8.66 0 1 1 0-12.25 8.67 8.67 0 0 1 0 12.25z" fill="#51d25b" fill-rule="evenodd"></path><path d="M14.79 14.79a8.66 8.66 0 1 1 0-12.25 8.67 8.67 0 0 1 0 12.25z" fill="#ff5b72" fill-rule="evenodd"></path><path d="M14.79 89.12a8.66 8.66 0 1 1 0-12.25 8.67 8.67 0 0 1 0 12.25z" fill="#0086c0" fill-rule="evenodd"></path></svg></svg> <!----></g></g> <g transform="translate(67,1.9676494598388672)"><g data-gra="path-name" fill-rule="" class="tp-name iconsvg-namesvg" transform="translate(0,0)"><g transform="scale(1)"><g><path d="M37.66 0.49L7.56 0.49Q6.39 0.49 5.67-0.22 4.95-0.94 4.95-2.11L4.95-2.11 4.95-22.41Q4.95-23.58 5.67-24.3 6.39-25.02 7.56-25.02L7.56-25.02 15.52-25.02 15.52-31.5 4.59-31.5Q3.01-31.5 3.01-33.12L3.01-33.12Q3.01-34.7 4.59-34.7L4.59-34.7 40.32-34.7Q41.89-34.7 41.89-33.12L41.89-33.12Q41.89-31.5 40.32-31.5L40.32-31.5 28.62-31.5 28.62-25.02 37.66-25.02Q38.84-25.02 39.55-24.3 40.27-23.58 40.27-22.41L40.27-22.41 40.27-2.11Q40.27-0.94 39.55-0.22 38.84 0.49 37.66 0.49L37.66 0.49ZM9.09-2.61L9.09-2.61 36-2.61Q36.95-2.61 36.95-3.55L36.95-3.55 36.95-12.29Q36.54-11.03 35.77-10.48L35.77-10.48Q35.05-10.04 33.7-10.04L33.7-10.04 29.29-10.04Q26.86-10.04 26.08-10.84 25.29-11.65 25.29-14.13L25.29-14.13 25.29-21.91 18.77-21.91 18.77-19.8Q18.77-12.42 12.69-8.41L12.69-8.41Q11.97-8.01 11.21-7.92L11.21-7.92Q10.35-7.83 9.86-8.28L9.86-8.28Q9.13-8.96 9.67-9.81L9.67-9.81Q10.08-10.53 11.16-11.16L11.16-11.16Q15.66-14.35 15.66-19.84L15.66-19.84 15.66-21.91 9.09-21.91Q8.14-21.91 8.14-20.97L8.14-20.97 8.14-3.55Q8.14-2.61 9.09-2.61ZM29.74-13L29.74-13 33.34-13Q34.11-13 34.34-13.72L34.34-13.72Q34.56-16.47 36-15.71L36-15.71Q36.63-15.43 36.95-15.34L36.95-15.34 36.95-20.97Q36.95-21.91 36-21.91L36-21.91 28.48-21.91 28.48-14.13Q28.48-13.37 28.69-13.18 28.89-13 29.74-13ZM18.77-31.5L18.77-25.02 25.29-25.02 25.29-31.5 18.77-31.5ZM52.74 3.19Q50.94 3.51 50.17 2.38L50.17 2.38Q48.87 0.49 51.84 0.09L51.84 0.09Q60.88-1.4 66.11-4.59L66.11-4.59Q61.29-6.52 57.38-7.69L57.38-7.69Q57.33-7.65 57.28-7.51L57.28-7.51Q57.11-7.25 57.02-7.11L57.02-7.11Q56.25-5.76 54.86-6.17L54.86-6.17Q53.82-6.43 53.55-6.91 53.28-7.38 53.82-8.23L53.82-8.23Q55.58-11.21 58.77-17.37L58.77-17.37 49.45-17.37Q47.88-17.37 47.88-18.95 47.88-20.52 49.45-20.52L49.45-20.52 60.44-20.52Q61.11-21.91 62.41-24.57L62.41-24.57Q63.05-25.88 63.36-26.5L63.36-26.5Q63.95-27.81 65.43-27.45L65.43-27.45Q67.36-27.04 66.51-25.33L66.51-25.33Q66.02-24.3 64.94-22.14L64.94-22.14Q64.44-21.06 64.17-20.52L64.17-20.52 85.59-20.52Q87.16-20.52 87.16-18.95 87.16-17.37 85.59-17.37L85.59-17.37 79.06-17.37Q77.13-10.13 72.5-5.49L72.5-5.49Q79.42-2.61 83.56-0.14L83.56-0.14Q84.42 0.36 84.38 0.9L84.38 0.9Q84.38 1.4 83.7 2.21L83.7 2.21Q83.07 2.88 82.66 3.01L82.66 3.01Q82.13 3.19 81.45 2.75L81.45 2.75Q76.95-0.04 69.7-3.15L69.7-3.15Q63.67 1.21 52.74 3.19L52.74 3.19ZM69.12-6.84L69.12-6.84Q73.58-10.8 75.28-17.37L75.28-17.37 62.55-17.37Q60.03-12.51 58.81-10.35L58.81-10.35Q63.36-8.96 69.12-6.84ZM50.85-23.31L50.85-23.31Q49.19-23.31 49.19-24.97L49.19-24.97 49.19-30.29Q49.19-31.45 49.91-32.17 50.63-32.89 51.8-32.89L51.8-32.89 65.66-32.89 65.66-35.95Q65.66-37.66 67.41-37.66L67.41-37.66Q69.12-37.66 69.12-35.95L69.12-35.95 69.12-32.89 83.43-32.89Q84.6-32.89 85.32-32.17 86.04-31.45 86.04-30.29L86.04-30.29 86.04-25.02Q86.04-23.31 84.33-23.31L84.33-23.31Q82.62-23.31 82.62-25.02L82.62-25.02 82.62-28.84Q82.62-29.79 81.67-29.79L81.67-29.79 53.46-29.79Q52.52-29.79 52.52-28.84L52.52-28.84 52.52-24.97Q52.52-23.31 50.85-23.31ZM112.32 3.46L112.32 3.46Q110.66 3.46 110.66 1.8L110.66 1.8 110.66-10.98 99.86-10.98Q98.33-10.98 98.33-12.55L98.33-12.55Q98.33-14.08 99.86-14.08L99.86-14.08 110.66-14.08 110.66-17.73Q110.66-19.39 112.32-19.39L112.32-19.39Q113.98-19.39 113.98-17.73L113.98-17.73 113.98-14.08 125.14-14.08Q126.67-14.08 126.67-12.55L126.67-12.55Q126.67-10.98 125.14-10.98L125.14-10.98 113.98-10.98 113.98 1.8Q113.98 3.46 112.32 3.46ZM97.56 1.4Q96.89 1.89 96.34 1.84L96.34 1.84Q95.81 1.84 95.17 1.35L95.17 1.35Q94.28 0.63 94.36 0.04 94.45-0.54 95.44-1.21L95.44-1.21Q99.09-3.92 101.47-7.33L101.47-7.33Q102.24-8.55 103.68-8.14L103.68-8.14Q105.66-7.6 104.58-5.89L104.58-5.89Q103.19-3.87 101.43-2.07L101.43-2.07Q99.77-0.27 97.56 1.4L97.56 1.4ZM129.47 1.08Q128.7 1.62 128.25 1.62L128.25 1.62Q127.75 1.57 127.22 0.94L127.22 0.94Q126.18-0.32 124.02-2.38L124.02-2.38Q122.4-3.92 120.15-5.8L120.15-5.8Q118.75-6.88 120.33-8.01L120.33-8.01Q121.32-8.73 122.31-7.96L122.31-7.96Q126.9-4.37 129.96-1.03L129.96-1.03Q130.5-0.4 130.37 0.09L130.37 0.09Q130.23 0.54 129.47 1.08ZM95.22-13.32Q93.64-12.69 92.88-13.95L92.88-13.95Q91.89-15.52 93.87-16.25L93.87-16.25Q98.64-18.22 102.91-21.2L102.91-21.2Q107.1-24.07 109.66-27.22L109.66-27.22Q110.03-27.68 110.72-27.99 111.42-28.3 112.14-28.3L112.14-28.3 112.36-28.3Q113.85-28.3 114.8-27.27L114.8-27.27Q118.17-23.76 122.81-20.88L122.81-20.88Q126.77-18.4 131.35-16.74L131.35-16.74Q133.29-16.11 132.25-14.35L132.25-14.35Q131.4-13.05 129.96-13.63L129.96-13.63Q124.97-15.62 120.24-18.72L120.24-18.72Q115.25-22 112.36-25.43L112.36-25.43Q109.8-22.18 105.16-18.9L105.16-18.9Q100.53-15.62 95.22-13.32L95.22-13.32ZM104.4-25.92L104.4-25.92Q102.73-25.92 102.73-27.54L102.73-27.54 102.73-30.69 94.64-30.69Q93.11-30.69 93.11-32.27L93.11-32.27Q93.11-33.8 94.64-33.8L94.64-33.8 102.73-33.8 102.73-36Q102.73-37.62 104.4-37.62L104.4-37.62Q106.02-37.62 106.02-36L106.02-36 106.02-33.8 118.66-33.8 118.66-36Q118.66-37.62 120.33-37.62L120.33-37.62Q121.95-37.62 121.95-36L121.95-36 121.95-33.8 130.5-33.8Q132.03-33.8 132.03-32.27L132.03-32.27Q132.03-30.69 130.5-30.69L130.5-30.69 121.95-30.69 121.95-27.54Q121.95-25.92 120.33-25.92L120.33-25.92Q118.66-25.92 118.66-27.54L118.66-27.54 118.66-30.69 106.02-30.69 106.02-27.54Q106.02-25.92 104.4-25.92ZM156.69 3.42L156.69 3.42Q154.94 3.42 154.94 1.71L154.94 1.71 154.94-17.91 139.32-17.91Q137.7-17.91 137.7-19.57L137.7-19.57Q137.7-21.2 139.32-21.2L139.32-21.2 154.94-21.2 154.94-35.95Q154.94-37.66 156.69-37.66L156.69-37.66Q158.4-37.66 158.4-35.95L158.4-35.95 158.4-31.18 171-31.18Q172.57-31.18 172.57-29.61L172.57-29.61Q172.57-27.99 171-27.99L171-27.99 158.4-27.99 158.4-21.2 175.77-21.2Q177.39-21.2 177.39-19.57L177.39-19.57Q177.39-17.91 175.77-17.91L175.77-17.91 158.4-17.91 158.4-13.18 158.81-13.81Q159.03-14.17 159.44-14.08L159.44-14.08Q167.81-11.7 172.84-9.54L172.84-9.54Q173.61-9.18 173.66-8.69L173.66-8.69Q173.7-8.23 173.25-7.38L173.25-7.38Q172.8-6.61 172.44-6.39L172.44-6.39Q171.99-6.17 171.27-6.48L171.27-6.48Q165.1-9.31 158.4-11.25L158.4-11.25 158.4 1.71Q158.4 3.42 156.69 3.42Z" transform="translate(-3.009999990463257, 37.65999984741211)"></path></g> <!----> <!----> <!----> <!----> <!----> <!----> <!----></g></g> <g data-gra="path-slogan" fill-rule="" class="tp-slogan iconsvg-slogansvg" fill="#333" transform="translate(5,47.119998931884766)"><rect x="0" height="1" y="3.9750003814697266" width="42.06500244140625"></rect> <rect height="1" y="3.9750003814697266" width="42.06500244140625" x="122.31500244140625"></rect> <g transform="translate(45.06500244140625,0)"><g transform="scale(1)"><path d="M7.64-8.58L4.73-4.41L7.78 0L6.33 0L3.98-3.52L1.64 0L0.23 0L3.33-4.41L0.42-8.58L1.88-8.58L4.03-5.30L6.23-8.58L7.64-8.58ZM9.05-8.58L10.22-8.58L10.22 0L9.05 0L9.05-8.58ZM12.89-5.53L12-5.53L12-8.58L12.89-8.58L12.89-5.53ZM20.11 0L19.27-2.48L15.80-2.48L14.91 0L13.73 0L16.97-8.58L18.28-8.58L21.38 0L20.11 0ZM17.53-7.31L16.17-3.52L18.84-3.52L17.58-7.31L17.53-7.31ZM23.81-8.58L28.13-1.64L28.13-8.58L29.25-8.58L29.25 0L27.94 0L23.58-6.94L23.53-6.94L23.53 0L22.41 0L22.41-8.58L23.81-8.58ZM41.53-6.05L41.53-6.05L40.41-6.05Q39.98-7.78 38.02-7.83L38.02-7.83Q35.30-7.69 35.20-4.36L35.20-4.36Q35.20-0.80 38.06-0.80L38.06-0.80Q40.03-0.84 40.50-3.19L40.50-3.19L41.63-3.19Q41.11 0.05 37.83 0.14L37.83 0.14Q34.08 0 33.98-4.31L33.98-4.31Q34.17-8.63 38.02-8.81L38.02-8.81Q41.06-8.72 41.53-6.05ZM44.16-5.06L48.66-5.06L48.66-8.58L49.83-8.58L49.83 0L48.66 0L48.66-3.98L44.16-3.98L44.16 0L42.98 0L42.98-8.58L44.16-8.58L44.16-5.06ZM57.28 0L56.44-2.48L52.97-2.48L52.08 0L50.91 0L54.14-8.58L55.45-8.58L58.55 0L57.28 0ZM54.70-7.31L53.34-3.52L56.02-3.52L54.75-7.31L54.70-7.31ZM62.11-4.31L60.75-3.05L60.75 0L59.58 0L59.58-8.58L60.75-8.58L60.75-4.41L64.92-8.58L66.56-8.58L62.95-5.11L66.66 0L65.11 0L62.11-4.31ZM73.22 0L72.38-2.48L68.91-2.48L68.02 0L66.84 0L70.08-8.58L71.39-8.58L74.48 0L73.22 0ZM70.64-7.31L69.28-3.52L71.95-3.52L70.69-7.31L70.64-7.31Z" transform="translate(-0.234375, 8.8125)"></path></g></g></g></g></g><defs v-gra="od"></defs></svg>